<svg width="828" height="1206" xmlns="http://www.w3.org/2000/svg" xmlns:xlink="http://www.w3.org/1999/xlink" xml:space="preserve" overflow="hidden"><g transform="translate(-1012 -135)"><path d="M1178.25 967.23 1300.65 967.229 1300.65 1057.14C1300.65 1061.82 1296.86 1065.61 1292.18 1065.61L1186.72 1065.61C1182.04 1065.61 1178.25 1061.82 1178.25 1057.14ZM1150.57 940.485 1150.57 1067.61C1150.57 1081.65 1161.95 1093.04 1175.99 1093.04L1302.91 1093.04C1316.95 1093.04 1328.34 1081.65 1328.34 1067.61L1328.34 940.485ZM1253.72 776.646 1299.27 801.366C1328.44 813.703 1359.78 821.905 1392.57 825.234L1400.27 825.623 1400.27 1076.88C1400.27 1090.71 1411.49 1101.93 1425.33 1101.93 1439.17 1101.93 1450.39 1090.71 1450.39 1076.88L1450.38 825.671 1459.04 825.234C1469.97 824.124 1480.74 822.473 1491.32 820.308L1518.05 813.435 1517.62 819.549C1518.82 829.186 1521.93 838.748 1527.09 847.687 1547.73 883.443 1593.45 895.693 1629.21 875.05L1663.07 855.497C1672.01 850.337 1679.48 843.608 1685.34 835.86L1694.78 816.498 1712.29 829.263C1761.18 871.612 1792.1 934.147 1792.1 1003.9L1792.1 1340.54 1059.5 1340.54 1059.5 1003.9C1059.5 892.292 1138.67 799.171 1243.92 777.634ZM1425.81 233.334C1574.02 233.334 1694.17 353.543 1694.17 501.827 1694.17 650.112 1574.02 770.321 1425.8 770.321 1277.59 770.321 1157.44 650.112 1157.44 501.827 1157.44 353.543 1277.59 233.334 1425.81 233.334ZM1425.8 135.347C1590.17 135.347 1729.26 243.665 1775.64 392.847L1780.19 410.582 1787.62 414.615C1818.89 435.736 1839.44 471.506 1839.44 512.076 1839.44 552.646 1818.89 588.415 1787.62 609.537L1773.25 617.341 1763.32 644.478C1744.78 688.323 1717.96 727.808 1684.82 760.968L1663.84 780.047 1666.66 788.45C1668.94 806.818 1660.3 825.617 1643.27 835.453L1621.75 847.876C1599.03 860.991 1569.99 853.208 1556.87 830.491 1543.75 807.774 1551.54 778.726 1574.25 765.611L1595.77 753.189C1601.45 749.91 1607.52 747.937 1613.65 747.177 1622.83 746.038 1632.12 747.627 1640.35 751.631L1641.97 752.736 1660.94 737.076C1691.02 706.973 1715.37 671.128 1732.2 631.326L1733.25 628.467 1721.91 629.61 1691.05 629.61 1697.99 616.811C1712.94 581.47 1721.21 542.614 1721.21 501.827 1721.21 481.434 1719.14 461.523 1715.21 442.293L1700.38 394.542 1721.91 394.542 1741.03 396.469 1732.2 372.329C1681.72 252.921 1563.54 169.136 1425.8 169.136 1288.07 169.136 1169.89 252.921 1119.41 372.329L1110.58 396.47 1129.7 394.542 1151.23 394.542 1136.4 442.293C1132.47 461.523 1130.4 481.434 1130.4 501.827 1130.4 542.614 1138.67 581.47 1153.62 616.811L1160.56 629.61 1129.7 629.61C1064.79 629.61 1012.17 576.988 1012.17 512.076 1012.17 471.506 1032.72 435.736 1063.98 414.615L1071.42 410.582 1075.97 392.847C1122.35 243.665 1261.43 135.347 1425.8 135.347Z" fill-rule="evenodd"/></g></svg>